<svg xmlns="http://www.w3.org/2000/svg" xmlns:xlink="http://www.w3.org/1999/xlink" width="500" zoomAndPan="magnify" viewBox="0 0 375 374.999991" height="500" preserveAspectRatio="xMidYMid meet" version="1.0"><defs><clipPath id="857068b2bb"><path d="M 37.5 37.5 L 337.5 37.5 L 337.5 337.5 L 37.5 337.5 Z M 37.5 37.5 " clip-rule="nonzero"/></clipPath><clipPath id="763323c818"><path d="M 187.5 37.5 C 104.65625 37.5 37.5 104.65625 37.5 187.5 C 37.5 270.34375 104.65625 337.5 187.5 337.5 C 270.34375 337.5 337.5 270.34375 337.5 187.5 C 337.5 104.65625 270.34375 37.5 187.5 37.5 Z M 187.5 37.5 " clip-rule="nonzero"/></clipPath><linearGradient x1="-0.00000133333" gradientTransform="matrix(1.171875, 0, 0, 1.171875, 37.500004, 37.499999)" y1="128" x2="255.999988" gradientUnits="userSpaceOnUse" y2="128" id="a3f98676f6"><stop stop-opacity="1" stop-color="rgb(100%, 87.098694%, 34.899902%)" offset="0"/><stop stop-opacity="1" stop-color="rgb(100%, 86.981201%, 34.881592%)" offset="0.0078125"/><stop stop-opacity="1" stop-color="rgb(100%, 86.74469%, 34.843445%)" offset="0.015625"/><stop stop-opacity="1" stop-color="rgb(100%, 86.508179%, 34.806824%)" offset="0.0234375"/><stop stop-opacity="1" stop-color="rgb(100%, 86.273193%, 34.770203%)" offset="0.03125"/><stop stop-opacity="1" stop-color="rgb(100%, 86.036682%, 34.733582%)" offset="0.0390625"/><stop stop-opacity="1" stop-color="rgb(100%, 85.801697%, 34.69696%)" offset="0.046875"/><stop stop-opacity="1" stop-color="rgb(100%, 85.565186%, 34.660339%)" offset="0.0546875"/><stop stop-opacity="1" stop-color="rgb(100%, 85.328674%, 34.623718%)" offset="0.0625"/><stop stop-opacity="1" stop-color="rgb(100%, 85.093689%, 34.587097%)" offset="0.0703125"/><stop stop-opacity="1" stop-color="rgb(100%, 84.857178%, 34.550476%)" offset="0.078125"/><stop stop-opacity="1" stop-color="rgb(100%, 84.620667%, 34.513855%)" offset="0.0859375"/><stop stop-opacity="1" stop-color="rgb(100%, 84.385681%, 34.477234%)" offset="0.09375"/><stop stop-opacity="1" stop-color="rgb(100%, 84.14917%, 34.440613%)" offset="0.101562"/><stop stop-opacity="1" stop-color="rgb(100%, 83.914185%, 34.403992%)" offset="0.109375"/><stop stop-opacity="1" stop-color="rgb(100%, 83.677673%, 34.367371%)" offset="0.117187"/><stop stop-opacity="1" stop-color="rgb(100%, 83.441162%, 34.33075%)" offset="0.125"/><stop stop-opacity="1" stop-color="rgb(100%, 83.206177%, 34.292603%)" offset="0.132812"/><stop stop-opacity="1" stop-color="rgb(100%, 82.969666%, 34.255981%)" offset="0.140625"/><stop stop-opacity="1" stop-color="rgb(100%, 82.73468%, 34.21936%)" offset="0.148437"/><stop stop-opacity="1" stop-color="rgb(100%, 82.498169%, 34.182739%)" offset="0.15625"/><stop stop-opacity="1" stop-color="rgb(100%, 82.261658%, 34.146118%)" offset="0.164062"/><stop stop-opacity="1" stop-color="rgb(100%, 82.026672%, 34.109497%)" offset="0.171875"/><stop stop-opacity="1" stop-color="rgb(100%, 81.790161%, 34.072876%)" offset="0.179687"/><stop stop-opacity="1" stop-color="rgb(100%, 81.55365%, 34.036255%)" offset="0.1875"/><stop stop-opacity="1" stop-color="rgb(100%, 81.318665%, 33.999634%)" offset="0.195312"/><stop stop-opacity="1" stop-color="rgb(100%, 81.082153%, 33.963013%)" offset="0.203125"/><stop stop-opacity="1" stop-color="rgb(100%, 80.847168%, 33.926392%)" offset="0.210937"/><stop stop-opacity="1" stop-color="rgb(100%, 80.610657%, 33.889771%)" offset="0.21875"/><stop stop-opacity="1" stop-color="rgb(100%, 80.374146%, 33.853149%)" offset="0.226562"/><stop stop-opacity="1" stop-color="rgb(100%, 80.13916%, 33.816528%)" offset="0.234375"/><stop stop-opacity="1" stop-color="rgb(100%, 79.902649%, 33.779907%)" offset="0.242187"/><stop stop-opacity="1" stop-color="rgb(100%, 79.666138%, 33.743286%)" offset="0.25"/><stop stop-opacity="1" stop-color="rgb(100%, 79.431152%, 33.705139%)" offset="0.257812"/><stop stop-opacity="1" stop-color="rgb(100%, 79.194641%, 33.668518%)" offset="0.265625"/><stop stop-opacity="1" stop-color="rgb(100%, 78.959656%, 33.631897%)" offset="0.273438"/><stop stop-opacity="1" stop-color="rgb(100%, 78.723145%, 33.595276%)" offset="0.28125"/><stop stop-opacity="1" stop-color="rgb(100%, 78.486633%, 33.558655%)" offset="0.289062"/><stop stop-opacity="1" stop-color="rgb(100%, 78.251648%, 33.522034%)" offset="0.296875"/><stop stop-opacity="1" stop-color="rgb(100%, 78.015137%, 33.485413%)" offset="0.304688"/><stop stop-opacity="1" stop-color="rgb(100%, 77.778625%, 33.448792%)" offset="0.3125"/><stop stop-opacity="1" stop-color="rgb(100%, 77.54364%, 33.41217%)" offset="0.320312"/><stop stop-opacity="1" stop-color="rgb(100%, 77.307129%, 33.375549%)" offset="0.328125"/><stop stop-opacity="1" stop-color="rgb(100%, 77.072144%, 33.338928%)" offset="0.335938"/><stop stop-opacity="1" stop-color="rgb(100%, 76.835632%, 33.302307%)" offset="0.34375"/><stop stop-opacity="1" stop-color="rgb(100%, 76.599121%, 33.265686%)" offset="0.351562"/><stop stop-opacity="1" stop-color="rgb(100%, 76.364136%, 33.229065%)" offset="0.359375"/><stop stop-opacity="1" stop-color="rgb(100%, 76.127625%, 33.192444%)" offset="0.367188"/><stop stop-opacity="1" stop-color="rgb(100%, 75.891113%, 33.154297%)" offset="0.375"/><stop stop-opacity="1" stop-color="rgb(100%, 75.656128%, 33.117676%)" offset="0.382812"/><stop stop-opacity="1" stop-color="rgb(100%, 75.419617%, 33.081055%)" offset="0.390625"/><stop stop-opacity="1" stop-color="rgb(100%, 75.184631%, 33.044434%)" offset="0.398438"/><stop stop-opacity="1" stop-color="rgb(100%, 74.94812%, 33.007812%)" offset="0.40625"/><stop stop-opacity="1" stop-color="rgb(100%, 74.711609%, 32.971191%)" offset="0.414062"/><stop stop-opacity="1" stop-color="rgb(100%, 74.476624%, 32.93457%)" offset="0.421875"/><stop stop-opacity="1" stop-color="rgb(100%, 74.240112%, 32.897949%)" offset="0.429688"/><stop stop-opacity="1" stop-color="rgb(100%, 74.003601%, 32.861328%)" offset="0.4375"/><stop stop-opacity="1" stop-color="rgb(100%, 73.768616%, 32.824707%)" offset="0.445312"/><stop stop-opacity="1" stop-color="rgb(100%, 73.532104%, 32.788086%)" offset="0.453125"/><stop stop-opacity="1" stop-color="rgb(100%, 73.297119%, 32.751465%)" offset="0.460938"/><stop stop-opacity="1" stop-color="rgb(100%, 73.060608%, 32.714844%)" offset="0.46875"/><stop stop-opacity="1" stop-color="rgb(100%, 72.824097%, 32.678223%)" offset="0.476562"/><stop stop-opacity="1" stop-color="rgb(100%, 72.589111%, 32.641602%)" offset="0.484375"/><stop stop-opacity="1" stop-color="rgb(100%, 72.3526%, 32.60498%)" offset="0.492188"/><stop stop-opacity="1" stop-color="rgb(100%, 72.116089%, 32.566833%)" offset="0.5"/><stop stop-opacity="1" stop-color="rgb(100%, 71.881104%, 32.530212%)" offset="0.507812"/><stop stop-opacity="1" stop-color="rgb(100%, 71.644592%, 32.493591%)" offset="0.515625"/><stop stop-opacity="1" stop-color="rgb(100%, 71.409607%, 32.45697%)" offset="0.523438"/><stop stop-opacity="1" stop-color="rgb(100%, 71.173096%, 32.420349%)" offset="0.53125"/><stop stop-opacity="1" stop-color="rgb(100%, 70.936584%, 32.383728%)" offset="0.539062"/><stop stop-opacity="1" stop-color="rgb(100%, 70.701599%, 32.347107%)" offset="0.546875"/><stop stop-opacity="1" stop-color="rgb(100%, 70.465088%, 32.310486%)" offset="0.554688"/><stop stop-opacity="1" stop-color="rgb(100%, 70.228577%, 32.273865%)" offset="0.5625"/><stop stop-opacity="1" stop-color="rgb(100%, 69.993591%, 32.237244%)" offset="0.570312"/><stop stop-opacity="1" stop-color="rgb(100%, 69.75708%, 32.200623%)" offset="0.578125"/><stop stop-opacity="1" stop-color="rgb(100%, 69.522095%, 32.164001%)" offset="0.585938"/><stop stop-opacity="1" stop-color="rgb(100%, 69.285583%, 32.12738%)" offset="0.59375"/><stop stop-opacity="1" stop-color="rgb(100%, 69.049072%, 32.090759%)" offset="0.601562"/><stop stop-opacity="1" stop-color="rgb(100%, 68.814087%, 32.054138%)" offset="0.609375"/><stop stop-opacity="1" stop-color="rgb(100%, 68.577576%, 32.017517%)" offset="0.617188"/><stop stop-opacity="1" stop-color="rgb(100%, 68.341064%, 31.97937%)" offset="0.625"/><stop stop-opacity="1" stop-color="rgb(100%, 68.106079%, 31.942749%)" offset="0.632812"/><stop stop-opacity="1" stop-color="rgb(100%, 67.869568%, 31.906128%)" offset="0.640625"/><stop stop-opacity="1" stop-color="rgb(100%, 67.634583%, 31.869507%)" offset="0.648438"/><stop stop-opacity="1" stop-color="rgb(100%, 67.398071%, 31.832886%)" offset="0.65625"/><stop stop-opacity="1" stop-color="rgb(100%, 67.16156%, 31.796265%)" offset="0.664062"/><stop stop-opacity="1" stop-color="rgb(100%, 66.926575%, 31.759644%)" offset="0.671875"/><stop stop-opacity="1" stop-color="rgb(100%, 66.690063%, 31.723022%)" offset="0.679688"/><stop stop-opacity="1" stop-color="rgb(100%, 66.453552%, 31.686401%)" offset="0.6875"/><stop stop-opacity="1" stop-color="rgb(100%, 66.218567%, 31.64978%)" offset="0.695312"/><stop stop-opacity="1" stop-color="rgb(100%, 65.982056%, 31.613159%)" offset="0.703125"/><stop stop-opacity="1" stop-color="rgb(100%, 65.74707%, 31.576538%)" offset="0.710938"/><stop stop-opacity="1" stop-color="rgb(100%, 65.510559%, 31.539917%)" offset="0.71875"/><stop stop-opacity="1" stop-color="rgb(100%, 65.274048%, 31.503296%)" offset="0.726562"/><stop stop-opacity="1" stop-color="rgb(100%, 65.039062%, 31.466675%)" offset="0.734375"/><stop stop-opacity="1" stop-color="rgb(100%, 64.802551%, 31.428528%)" offset="0.742188"/><stop stop-opacity="1" stop-color="rgb(100%, 64.56604%, 31.391907%)" offset="0.75"/><stop stop-opacity="1" stop-color="rgb(100%, 64.331055%, 31.355286%)" offset="0.757812"/><stop stop-opacity="1" stop-color="rgb(100%, 64.094543%, 31.318665%)" offset="0.765625"/><stop stop-opacity="1" stop-color="rgb(100%, 63.859558%, 31.282043%)" offset="0.773438"/><stop stop-opacity="1" stop-color="rgb(100%, 63.623047%, 31.245422%)" offset="0.78125"/><stop stop-opacity="1" stop-color="rgb(100%, 63.386536%, 31.208801%)" offset="0.789062"/><stop stop-opacity="1" stop-color="rgb(100%, 63.15155%, 31.17218%)" offset="0.796875"/><stop stop-opacity="1" stop-color="rgb(100%, 62.915039%, 31.135559%)" offset="0.804688"/><stop stop-opacity="1" stop-color="rgb(100%, 62.678528%, 31.098938%)" offset="0.8125"/><stop stop-opacity="1" stop-color="rgb(100%, 62.443542%, 31.062317%)" offset="0.820312"/><stop stop-opacity="1" stop-color="rgb(100%, 62.207031%, 31.025696%)" offset="0.828125"/><stop stop-opacity="1" stop-color="rgb(100%, 61.972046%, 30.989075%)" offset="0.835938"/><stop stop-opacity="1" stop-color="rgb(100%, 61.735535%, 30.952454%)" offset="0.84375"/><stop stop-opacity="1" stop-color="rgb(100%, 61.499023%, 30.915833%)" offset="0.851562"/><stop stop-opacity="1" stop-color="rgb(100%, 61.264038%, 30.879211%)" offset="0.859375"/><stop stop-opacity="1" stop-color="rgb(100%, 61.027527%, 30.841064%)" offset="0.867188"/><stop stop-opacity="1" stop-color="rgb(100%, 60.791016%, 30.804443%)" offset="0.875"/><stop stop-opacity="1" stop-color="rgb(100%, 60.55603%, 30.767822%)" offset="0.882812"/><stop stop-opacity="1" stop-color="rgb(100%, 60.319519%, 30.731201%)" offset="0.890625"/><stop stop-opacity="1" stop-color="rgb(100%, 60.084534%, 30.69458%)" offset="0.898438"/><stop stop-opacity="1" stop-color="rgb(100%, 59.848022%, 30.657959%)" offset="0.90625"/><stop stop-opacity="1" stop-color="rgb(100%, 59.611511%, 30.621338%)" offset="0.914062"/><stop stop-opacity="1" stop-color="rgb(100%, 59.376526%, 30.584717%)" offset="0.921875"/><stop stop-opacity="1" stop-color="rgb(100%, 59.140015%, 30.548096%)" offset="0.929688"/><stop stop-opacity="1" stop-color="rgb(100%, 58.903503%, 30.511475%)" offset="0.9375"/><stop stop-opacity="1" stop-color="rgb(100%, 58.668518%, 30.474854%)" offset="0.945312"/><stop stop-opacity="1" stop-color="rgb(100%, 58.432007%, 30.438232%)" offset="0.953125"/><stop stop-opacity="1" stop-color="rgb(100%, 58.197021%, 30.401611%)" offset="0.960938"/><stop stop-opacity="1" stop-color="rgb(100%, 57.96051%, 30.36499%)" offset="0.96875"/><stop stop-opacity="1" stop-color="rgb(100%, 57.723999%, 30.328369%)" offset="0.976562"/><stop stop-opacity="1" stop-color="rgb(100%, 57.489014%, 30.291748%)" offset="0.984375"/><stop stop-opacity="1" stop-color="rgb(100%, 57.252502%, 30.253601%)" offset="0.992188"/><stop stop-opacity="1" stop-color="rgb(100%, 57.015991%, 30.21698%)" offset="1"/></linearGradient><clipPath id="f1f198ccb3"><path d="M 30.960938 30.960938 L 343.710938 30.960938 L 343.710938 343.710938 L 30.960938 343.710938 Z M 30.960938 30.960938 " clip-rule="nonzero"/></clipPath></defs><g clip-path="url(#857068b2bb)"><g clip-path="url(#763323c818)"><path fill="url(#a3f98676f6)" d="M 37.5 37.5 L 37.5 337.5 L 337.5 337.5 L 337.5 37.5 Z M 37.5 37.5 " fill-rule="nonzero"/></g></g><g clip-path="url(#f1f198ccb3)"><path fill="#000000" d="M 187.335938 30.960938 C 100.972656 30.960938 30.960938 100.972656 30.960938 187.335938 C 30.960938 273.699219 100.972656 343.710938 187.335938 343.710938 C 273.699219 343.710938 343.710938 273.699219 343.710938 187.335938 C 343.710938 100.972656 273.699219 30.960938 187.335938 30.960938 Z M 187.335938 324.164062 C 111.890625 324.164062 50.507812 262.78125 50.507812 187.335938 C 50.507812 111.890625 111.890625 50.507812 187.335938 50.507812 C 262.78125 50.507812 324.164062 111.890625 324.164062 187.335938 C 324.164062 262.78125 262.78125 324.164062 187.335938 324.164062 Z M 187.335938 324.164062 " fill-opacity="1" fill-rule="nonzero"/></g><path fill="#000000" d="M 148.242188 149.058594 C 148.242188 149.699219 148.210938 150.335938 148.148438 150.972656 C 148.085938 151.609375 147.992188 152.242188 147.867188 152.871094 C 147.742188 153.5 147.585938 154.117188 147.398438 154.730469 C 147.214844 155.34375 147 155.945312 146.753906 156.539062 C 146.507812 157.128906 146.234375 157.707031 145.933594 158.273438 C 145.632812 158.835938 145.304688 159.386719 144.945312 159.917969 C 144.589844 160.449219 144.210938 160.964844 143.804688 161.457031 C 143.398438 161.953125 142.96875 162.425781 142.515625 162.878906 C 142.0625 163.332031 141.589844 163.761719 141.09375 164.167969 C 140.601562 164.574219 140.085938 164.953125 139.554688 165.308594 C 139.023438 165.664062 138.472656 165.996094 137.910156 166.296875 C 137.34375 166.597656 136.765625 166.871094 136.175781 167.117188 C 135.582031 167.363281 134.980469 167.578125 134.367188 167.761719 C 133.757812 167.949219 133.136719 168.105469 132.507812 168.230469 C 131.878906 168.355469 131.246094 168.449219 130.609375 168.511719 C 129.972656 168.574219 129.335938 168.605469 128.695312 168.605469 C 128.054688 168.605469 127.414062 168.574219 126.777344 168.511719 C 126.140625 168.449219 125.507812 168.355469 124.882812 168.230469 C 124.253906 168.105469 123.632812 167.949219 123.019531 167.761719 C 122.40625 167.578125 121.804688 167.363281 121.214844 167.117188 C 120.621094 166.871094 120.042969 166.597656 119.480469 166.296875 C 118.914062 165.996094 118.367188 165.664062 117.835938 165.308594 C 117.300781 164.953125 116.789062 164.574219 116.292969 164.167969 C 115.800781 163.761719 115.324219 163.332031 114.871094 162.878906 C 114.421875 162.425781 113.992188 161.953125 113.585938 161.457031 C 113.179688 160.964844 112.796875 160.449219 112.441406 159.917969 C 112.085938 159.386719 111.757812 158.835938 111.457031 158.273438 C 111.152344 157.707031 110.878906 157.128906 110.636719 156.539062 C 110.390625 155.945312 110.175781 155.34375 109.988281 154.730469 C 109.804688 154.117188 109.648438 153.5 109.523438 152.871094 C 109.398438 152.242188 109.304688 151.609375 109.242188 150.972656 C 109.179688 150.335938 109.148438 149.699219 109.148438 149.058594 C 109.148438 148.417969 109.179688 147.777344 109.242188 147.140625 C 109.304688 146.503906 109.398438 145.871094 109.523438 145.246094 C 109.648438 144.617188 109.804688 143.996094 109.988281 143.382812 C 110.175781 142.769531 110.390625 142.167969 110.636719 141.578125 C 110.878906 140.984375 111.152344 140.40625 111.457031 139.84375 C 111.757812 139.277344 112.085938 138.730469 112.441406 138.199219 C 112.796875 137.664062 113.179688 137.152344 113.585938 136.65625 C 113.992188 136.164062 114.421875 135.6875 114.871094 135.234375 C 115.324219 134.78125 115.800781 134.355469 116.292969 133.949219 C 116.789062 133.542969 117.300781 133.160156 117.835938 132.804688 C 118.367188 132.449219 118.914062 132.121094 119.480469 131.820312 C 120.042969 131.515625 120.621094 131.242188 121.214844 131 C 121.804688 130.753906 122.40625 130.539062 123.019531 130.351562 C 123.632812 130.167969 124.253906 130.011719 124.882812 129.886719 C 125.507812 129.761719 126.140625 129.667969 126.777344 129.605469 C 127.414062 129.542969 128.054688 129.511719 128.695312 129.511719 C 129.335938 129.511719 129.972656 129.542969 130.609375 129.605469 C 131.246094 129.667969 131.878906 129.761719 132.507812 129.886719 C 133.136719 130.011719 133.757812 130.167969 134.367188 130.351562 C 134.980469 130.539062 135.582031 130.753906 136.175781 131 C 136.765625 131.242188 137.34375 131.515625 137.910156 131.820312 C 138.472656 132.121094 139.023438 132.449219 139.554688 132.804688 C 140.085938 133.160156 140.601562 133.542969 141.09375 133.949219 C 141.589844 134.355469 142.0625 134.78125 142.515625 135.234375 C 142.96875 135.6875 143.398438 136.164062 143.804688 136.65625 C 144.210938 137.152344 144.589844 137.664062 144.945312 138.199219 C 145.304688 138.730469 145.632812 139.277344 145.933594 139.84375 C 146.234375 140.40625 146.507812 140.984375 146.753906 141.578125 C 147 142.167969 147.214844 142.769531 147.398438 143.382812 C 147.585938 143.996094 147.742188 144.617188 147.867188 145.246094 C 147.992188 145.871094 148.085938 146.503906 148.148438 147.140625 C 148.210938 147.777344 148.242188 148.417969 148.242188 149.058594 Z M 148.242188 149.058594 " fill-opacity="1" fill-rule="nonzero"/><path fill="#000000" d="M 265.523438 149.058594 C 265.523438 149.699219 265.492188 150.335938 265.429688 150.972656 C 265.367188 151.609375 265.273438 152.242188 265.148438 152.871094 C 265.023438 153.5 264.867188 154.117188 264.679688 154.730469 C 264.496094 155.34375 264.28125 155.945312 264.035156 156.539062 C 263.789062 157.128906 263.515625 157.707031 263.214844 158.273438 C 262.914062 158.835938 262.585938 159.386719 262.226562 159.917969 C 261.871094 160.449219 261.492188 160.964844 261.085938 161.457031 C 260.679688 161.953125 260.25 162.425781 259.796875 162.878906 C 259.34375 163.332031 258.871094 163.761719 258.375 164.167969 C 257.882812 164.574219 257.367188 164.953125 256.835938 165.308594 C 256.304688 165.664062 255.753906 165.996094 255.191406 166.296875 C 254.625 166.597656 254.046875 166.871094 253.457031 167.117188 C 252.863281 167.363281 252.261719 167.578125 251.648438 167.761719 C 251.039062 167.949219 250.417969 168.105469 249.789062 168.230469 C 249.160156 168.355469 248.527344 168.449219 247.890625 168.511719 C 247.253906 168.574219 246.617188 168.605469 245.976562 168.605469 C 245.335938 168.605469 244.695312 168.574219 244.058594 168.511719 C 243.421875 168.449219 242.789062 168.355469 242.164062 168.230469 C 241.535156 168.105469 240.914062 167.949219 240.300781 167.761719 C 239.6875 167.578125 239.085938 167.363281 238.496094 167.117188 C 237.902344 166.871094 237.324219 166.597656 236.761719 166.296875 C 236.195312 165.996094 235.648438 165.664062 235.117188 165.308594 C 234.582031 164.953125 234.070312 164.574219 233.574219 164.167969 C 233.082031 163.761719 232.605469 163.332031 232.152344 162.878906 C 231.703125 162.425781 231.273438 161.953125 230.867188 161.457031 C 230.460938 160.964844 230.078125 160.449219 229.722656 159.917969 C 229.367188 159.386719 229.039062 158.835938 228.738281 158.273438 C 228.433594 157.707031 228.160156 157.128906 227.917969 156.539062 C 227.671875 155.945312 227.457031 155.34375 227.269531 154.730469 C 227.085938 154.117188 226.929688 153.5 226.804688 152.871094 C 226.679688 152.242188 226.585938 151.609375 226.523438 150.972656 C 226.460938 150.335938 226.429688 149.699219 226.429688 149.058594 C 226.429688 148.417969 226.460938 147.777344 226.523438 147.140625 C 226.585938 146.503906 226.679688 145.871094 226.804688 145.246094 C 226.929688 144.617188 227.085938 143.996094 227.269531 143.382812 C 227.457031 142.769531 227.671875 142.167969 227.917969 141.578125 C 228.160156 140.984375 228.433594 140.40625 228.738281 139.84375 C 229.039062 139.277344 229.367188 138.730469 229.722656 138.199219 C 230.078125 137.664062 230.460938 137.152344 230.867188 136.65625 C 231.273438 136.164062 231.703125 135.6875 232.152344 135.234375 C 232.605469 134.78125 233.082031 134.355469 233.574219 133.949219 C 234.070312 133.542969 234.582031 133.160156 235.117188 132.804688 C 235.648438 132.449219 236.195312 132.121094 236.761719 131.820312 C 237.324219 131.515625 237.902344 131.242188 238.496094 131 C 239.085938 130.753906 239.6875 130.539062 240.300781 130.351562 C 240.914062 130.167969 241.535156 130.011719 242.164062 129.886719 C 242.789062 129.761719 243.421875 129.667969 244.058594 129.605469 C 244.695312 129.542969 245.335938 129.511719 245.976562 129.511719 C 246.617188 129.511719 247.253906 129.542969 247.890625 129.605469 C 248.527344 129.667969 249.160156 129.761719 249.789062 129.886719 C 250.417969 130.011719 251.039062 130.167969 251.648438 130.351562 C 252.261719 130.539062 252.863281 130.753906 253.457031 131 C 254.046875 131.242188 254.625 131.515625 255.191406 131.820312 C 255.753906 132.121094 256.304688 132.449219 256.835938 132.804688 C 257.367188 133.160156 257.882812 133.542969 258.375 133.949219 C 258.871094 134.355469 259.34375 134.78125 259.796875 135.234375 C 260.25 135.6875 260.679688 136.164062 261.085938 136.65625 C 261.492188 137.152344 261.871094 137.664062 262.226562 138.199219 C 262.585938 138.730469 262.914062 139.277344 263.214844 139.84375 C 263.515625 140.40625 263.789062 140.984375 264.035156 141.578125 C 264.28125 142.167969 264.496094 142.769531 264.679688 143.382812 C 264.867188 143.996094 265.023438 144.617188 265.148438 145.246094 C 265.273438 145.871094 265.367188 146.503906 265.429688 147.140625 C 265.492188 147.777344 265.523438 148.417969 265.523438 149.058594 Z M 265.523438 149.058594 " fill-opacity="1" fill-rule="nonzero"/><path fill="#000000" d="M 260.339844 217.851562 C 255.535156 215.261719 249.539062 217.03125 246.933594 221.832031 C 246.753906 222.175781 227.949219 256.027344 187.335938 256.027344 C 146.183594 256.027344 128.546875 223.375 127.835938 222.027344 C 125.335938 217.179688 119.375 215.257812 114.523438 217.75 C 109.664062 220.253906 107.75 226.210938 110.253906 231.066406 C 111.191406 232.894531 133.863281 275.808594 187.339844 275.808594 C 239.597656 275.808594 263.347656 233.074219 264.332031 231.261719 C 266.929688 226.449219 265.140625 220.453125 260.339844 217.851562 Z M 260.339844 217.851562 " fill-opacity="1" fill-rule="nonzero"/></svg>